<svg width="24" height="25" viewBox="0 0 24 25" fill="none" xmlns="http://www.w3.org/2000/svg">
<path fill-rule="evenodd" clip-rule="evenodd" d="M6 1.75C4.48122 1.75 3.25 2.98122 3.25 4.5V15.5C3.25 17.0188 4.48122 18.25 6 18.25H18C19.5188 18.25 20.75 17.0188 20.75 15.5V4.5C20.75 2.98122 19.5188 1.75 18 1.75H6ZM10.805 6.80829C11.081 6.76873 11.3964 6.74417 11.6836 6.75119C11.8316 6.75482 11.9536 6.76652 12.0499 6.78213C11.9823 6.87326 11.8852 6.98655 11.749 7.1232C10.6554 8.22041 9.27729 10.0084 8.63651 11.3656C8.47484 11.7081 8.3414 12.0614 8.28273 12.393C8.22865 12.6988 8.20925 13.1498 8.48927 13.5285C8.79998 13.9487 9.28323 14.0314 9.67057 14.0056C10.0576 13.9797 10.503 13.8426 10.9949 13.6312C11.8752 13.2527 12.604 13.0433 13.169 12.9561C13.7355 12.8687 14.0723 12.914 14.2288 12.9721C14.1927 13.0613 14.0979 13.2299 13.858 13.4705C13.5656 13.7639 13.5664 14.2388 13.8598 14.5312C14.1531 14.8236 14.628 14.8228 14.9204 14.5295C15.3634 14.085 15.716 13.5553 15.7476 12.9836C15.7645 12.6771 15.6864 12.3727 15.4982 12.1114C15.3156 11.8578 15.0629 11.6903 14.8002 11.5849C14.2917 11.3809 13.6428 11.3652 12.9402 11.4737C12.22 11.5848 11.3673 11.8383 10.4024 12.2531C10.149 12.3621 9.95362 12.4282 9.8076 12.466C9.84695 12.3407 9.9074 12.1872 9.99294 12.006C10.5383 10.8508 11.7962 9.20061 12.8114 8.18212C13.2521 7.74 13.6062 7.26116 13.6632 6.74881C13.6955 6.45803 13.6296 6.17212 13.4595 5.92963C13.3004 5.70279 13.0853 5.56339 12.8955 5.47651C12.5295 5.30896 12.0897 5.26068 11.7203 5.25164C11.332 5.24214 10.9312 5.27488 10.5922 5.32347C10.1822 5.38224 9.89743 5.76226 9.9562 6.17229C10.015 6.58231 10.395 6.86706 10.805 6.80829Z" fill="white"/>
<path fill-rule="evenodd" clip-rule="evenodd" d="M12 22C11.4477 22 11 21.5523 11 21V17.5C11 16.9477 11.4477 16.5 12 16.5C12.5523 16.5 13 16.9477 13 17.5V21C13 21.5523 12.5523 22 12 22Z" fill="white"/>
<path fill-rule="evenodd" clip-rule="evenodd" d="M7.37165 16.5718C7.88444 16.7769 8.13385 17.3589 7.92874 17.8717L5.92874 22.8717C5.72363 23.3844 5.14166 23.6339 4.62887 23.4287C4.11609 23.2236 3.86667 22.6417 4.07179 22.1289L6.07179 17.1289C6.2769 16.6161 6.85887 16.3667 7.37165 16.5718Z" fill="white"/>
<path fill-rule="evenodd" clip-rule="evenodd" d="M16.6289 16.5718C16.1161 16.7769 15.8667 17.3589 16.0718 17.8717L18.0718 22.8717C18.2769 23.3844 18.8589 23.6339 19.3717 23.4287C19.8844 23.2236 20.1339 22.6417 19.9287 22.1289L17.9287 17.1289C17.7236 16.6161 17.1417 16.3667 16.6289 16.5718Z" fill="white"/>
</svg>
