<svg width="24" height="25" viewBox="0 0 24 25" fill="none" xmlns="http://www.w3.org/2000/svg">
<path fill-rule="evenodd" clip-rule="evenodd" d="M11.5 1.75C12.5375 1.75 13.5302 1.9415 14.4448 2.29107L14.3664 2.50295C14.1817 3.00197 14.0537 3.31903 13.9797 3.47966C13.819 3.55365 13.502 3.68172 13.003 3.86637L12.3059 4.1243C11.5211 4.41472 11 5.16312 11 6C11 6.83688 11.5211 7.58527 12.3059 7.8757L13.003 8.13363C13.502 8.31828 13.819 8.44635 13.9797 8.52034C14.0537 8.68097 14.1817 8.99803 14.3664 9.49705L14.6243 10.1941C14.9147 10.9789 15.6631 11.5 16.5 11.5C17.3369 11.5 18.0853 10.9789 18.3757 10.1941L18.6336 9.49705C18.8183 8.99803 18.9463 8.68097 19.0203 8.52034C19.1296 8.47001 19.3112 8.39466 19.5733 8.2935C19.6891 8.84411 19.75 9.41495 19.75 10C19.75 13.1019 18.0381 15.804 15.5075 17.213L15.398 17.87C15.2172 18.9549 14.2785 19.7501 13.1786 19.7501H9.72003C8.62014 19.7501 7.68146 18.9549 7.50064 17.87L7.38056 17.1495C4.91156 15.7238 3.25 13.056 3.25 10C3.25 5.44365 6.94365 1.75 11.5 1.75ZM16.5 1.75C16.8138 1.75 17.0945 1.9454 17.2034 2.23972L17.4613 2.93675C17.8233 3.9151 17.9388 4.18091 18.1289 4.37106C18.3191 4.56121 18.5849 4.67667 19.5633 5.03869L20.2603 5.29661C20.5546 5.40552 20.75 5.68617 20.75 6C20.75 6.31383 20.5546 6.59448 20.2603 6.70339L19.5633 6.96131C18.5849 7.32333 18.3191 7.43879 18.1289 7.62894C17.9388 7.81909 17.8233 8.0849 17.4613 9.06325L17.2034 9.76028C17.0945 10.0546 16.8138 10.25 16.5 10.25C16.1862 10.25 15.9055 10.0546 15.7966 9.76028L15.5387 9.06325C15.1767 8.0849 15.0612 7.81909 14.8711 7.62894C14.6809 7.43879 14.4151 7.32333 13.4367 6.96131L12.7397 6.70339C12.4454 6.59448 12.25 6.31383 12.25 6C12.25 5.68617 12.4454 5.40552 12.7397 5.29661L13.4367 5.03869C14.4151 4.67667 14.6809 4.56121 14.8711 4.37106C15.0612 4.18091 15.1767 3.9151 15.5387 2.93675L15.7966 2.23972C15.9055 1.9454 16.1862 1.75 16.5 1.75ZM8.75 21V21.4999C8.75 22.4664 9.5335 23.2499 10.5 23.2499H12.5C13.4665 23.2499 14.25 22.4664 14.25 21.4999V21H8.75Z" fill="white"/>
</svg>
